<svg width="20" height="23" viewBox="0 0 20 23" fill="none" xmlns="http://www.w3.org/2000/svg">
<path d="M10.0001 21.5625C9.21167 21.5625 8.5715 20.9165 8.5715 20.1237H7.14296C7.14296 21.7098 8.42508 23 10.0001 23C11.575 23 12.8572 21.7098 12.8572 20.1237H11.4286C11.4286 20.9165 10.7884 21.5625 10.0001 21.5625ZM19.3472 15.0403C18.099 13.8445 17.1446 12.5929 17.1446 8.35098C17.1446 4.77564 14.3147 1.85977 10.7143 1.50713V0.71875C10.7143 0.321641 10.3947 0 10.0001 0C9.60542 0 9.28578 0.321641 9.28578 0.71875V1.50758C5.68539 1.86021 2.85552 4.77564 2.85552 8.35098C2.85552 12.5925 1.90063 13.8445 0.652435 15.0403C0.0287846 15.6378 -0.168087 16.5411 0.150211 17.3416C0.475206 18.1592 1.25734 18.6875 2.14304 18.6875H17.8571C18.7428 18.6875 19.5249 18.1588 19.8499 17.3412C20.1682 16.5407 19.9709 15.6378 19.3472 15.0403ZM17.8571 17.25H2.14304C1.50778 17.25 1.19037 16.5101 1.63769 16.0816C3.19391 14.5906 4.28407 12.9218 4.28407 8.35143C4.28407 5.32459 6.84073 2.875 10.0001 2.875C13.1589 2.875 15.716 5.32414 15.716 8.35098C15.716 12.9038 16.7968 14.5816 18.3624 16.0811C18.8115 16.5119 18.4896 17.25 17.8571 17.25Z" fill="#4F4F4F"/>
</svg>
