<svg width="4" height="4" viewBox="0 0 4 4" fill="none" xmlns="http://www.w3.org/2000/svg">
<path d="M3.74723 0.252732C3.67685 0.182353 3.56309 0.182353 3.49271 0.252732L2.00001 1.74545L0.50731 0.252732C0.436932 0.182353 0.323174 0.182353 0.252796 0.252732C0.182418 0.323111 0.182418 0.43687 0.252796 0.507249L1.7455 1.99997L0.252796 3.49269C0.182418 3.56307 0.182418 3.67683 0.252796 3.74721C0.287895 3.78231 0.333974 3.79995 0.380053 3.79995C0.426132 3.79995 0.472211 3.78231 0.50731 3.74721L2.00001 2.25449L3.49271 3.74721C3.52781 3.78231 3.57389 3.79995 3.61997 3.79995C3.66605 3.79995 3.71213 3.78231 3.74723 3.74721C3.81761 3.67683 3.81761 3.56307 3.74723 3.49269L2.25453 1.99997L3.74723 0.507249C3.81761 0.43687 3.81761 0.323111 3.74723 0.252732Z" fill="#6B6B6B"/>
</svg>
